<svg xmlns="http://www.w3.org/2000/svg" xmlns:xlink="http://www.w3.org/1999/xlink" width="1080" zoomAndPan="magnify" viewBox="0 0 810 809.999993" height="1080" preserveAspectRatio="xMidYMid meet" version="1.0"><path fill="#000000" d="M 669.507812 230.523438 L 669.519531 232.585938 L 669.460938 233.96875 L 669.34375 236.566406 L 669.0625 241.753906 C 668.859375 245.207031 668.628906 248.660156 668.367188 252.109375 C 667.839844 259.007812 667.203125 265.894531 666.410156 272.769531 C 664.585938 288.59375 662.148438 304.363281 658.980469 320.019531 C 658.605469 321.980469 658.183594 323.933594 657.765625 325.886719 C 657.359375 327.828125 656.894531 329.84375 656.601562 331.632812 L 654.625 342.6875 L 653.023438 354.171875 C 652.480469 357.996094 651.957031 361.828125 651.53125 365.714844 C 647.636719 398.214844 644.179688 431.058594 641.949219 463.792969 C 639.460938 500.460938 636.003906 536.988281 633.1875 573.613281 C 632.332031 584.503906 632.363281 595.441406 631.53125 606.332031 C 629.691406 630.515625 627.699219 654.699219 625.671875 678.871094 L 619.628906 750.28125 L 618.15625 768.136719 L 617.433594 777.066406 L 617.339844 778.210938 L 617.125 780.042969 C 616.925781 781.257812 616.695312 782.476562 616.324219 783.65625 C 615.625 786.027344 614.609375 788.316406 613.265625 790.394531 C 610.613281 794.5625 606.800781 797.972656 602.351562 800.085938 C 600.140625 801.148438 597.777344 801.925781 595.375 802.324219 C 594.683594 802.457031 594.402344 802.484375 594.007812 802.546875 L 592.863281 802.710938 L 590.578125 803.03125 C 584.496094 803.863281 578.433594 804.554688 572.375 805.164062 C 550.179688 807.367188 528.035156 808.507812 505.902344 809.015625 C 494.789062 809.253906 483.882812 809.328125 472.9375 809.460938 L 440.097656 809.796875 L 428.347656 809.765625 C 380.578125 809.734375 332.785156 810.039062 285.042969 809.578125 C 259.691406 809.332031 234.363281 809.566406 209.046875 809.820312 C 207.953125 809.855469 204.691406 809.871094 202.121094 809.347656 C 199.449219 808.867188 196.863281 807.933594 194.457031 806.683594 C 189.628906 804.1875 185.585938 800.21875 182.972656 795.429688 C 181.65625 793.042969 180.691406 790.453125 180.148438 787.800781 C 180.085938 787.511719 179.980469 787.054688 179.957031 786.894531 L 179.652344 785.078125 L 179.25 782.652344 C 178.726562 779.425781 178.136719 776.160156 177.730469 772.992188 L 176.410156 763.417969 L 175.257812 753.886719 C 174.476562 747.527344 173.855469 741.191406 173.21875 734.84375 C 171.554688 717.578125 170.152344 700.339844 168.824219 683.101562 C 166.941406 658.886719 165.242188 634.671875 163.746094 610.4375 C 162.28125 586.171875 160.90625 562.007812 160.269531 537.457031 L 160.117188 521.386719 C 159.945312 516.105469 159.828125 510.832031 159.574219 505.488281 C 159.144531 494.835938 158.613281 484.140625 158.066406 473.449219 C 156.96875 452.0625 155.734375 430.652344 154.484375 409.246094 C 152.804688 380.5625 151.390625 351.871094 149.34375 323.203125 C 147.617188 299.050781 145.144531 274.9375 143.136719 250.796875 C 142.929688 248.265625 142.746094 245.730469 142.582031 243.195312 L 142.351562 239.390625 C 142.332031 239.144531 142.320312 238.546875 142.3125 238.109375 L 142.304688 236.691406 C 142.367188 235.746094 142.441406 234.796875 142.578125 233.859375 C 143.171875 230.101562 144.679688 226.511719 146.886719 223.46875 C 149.089844 220.414062 152.042969 217.953125 155.367188 216.238281 C 156.441406 215.644531 157.523438 215.332031 158.464844 215.054688 C 159.4375 214.863281 160.304688 214.722656 161.078125 214.742188 C 161.226562 214.746094 161.355469 214.765625 161.496094 214.777344 L 197.140625 211.476562 L 197.136719 211.496094 C 201.804688 210.996094 206.613281 210.65625 211.519531 210.433594 C 227.199219 209.726562 242.921875 209.398438 258.585938 208.652344 C 289.816406 207.179688 320.996094 205.542969 352.367188 204.5625 C 357.050781 204.410156 361.796875 204.625 366.523438 204.609375 L 519.242188 204.691406 L 627.203125 205.398438 L 637.410156 205.402344 L 642.511719 205.394531 L 643.152344 205.390625 L 644.109375 205.421875 C 644.789062 205.457031 645.472656 205.480469 646.152344 205.550781 C 647.511719 205.734375 648.875 205.9375 650.199219 206.328125 C 655.546875 207.738281 660.34375 210.960938 663.792969 215.242188 C 665.503906 217.40625 666.882812 219.828125 667.871094 222.417969 C 668.851562 225.015625 669.371094 227.773438 669.507812 230.523438 Z M 698.636719 68.125 C 697.980469 70.507812 696.828125 72.554688 695.550781 74.285156 C 694.597656 75.476562 693.570312 76.507812 692.480469 77.359375 L 692.480469 77.363281 L 692.476562 77.363281 C 692.023438 77.714844 691.566406 78.042969 691.089844 78.324219 C 688.980469 79.632812 686.800781 80.296875 684.765625 80.480469 L 663.507812 89.074219 L 663.507812 89.070312 C 653.0625 93.550781 642.109375 97.191406 630.402344 99.71875 C 588.046875 108.84375 545.753906 118.296875 503.535156 128.050781 C 469.851562 135.867188 436.324219 144.378906 402.671875 152.285156 C 366.15625 160.796875 329.582031 169.007812 293.101562 177.597656 C 290.757812 178.148438 288.308594 178.484375 286.085938 179.277344 C 272.027344 184.265625 257.609375 187.917969 243.160156 191.441406 L 221.492188 196.710938 L 210.675781 199.429688 C 207.09375 200.402344 203.523438 201.40625 199.964844 202.453125 L 185.816406 206.585938 L 178.734375 208.632812 L 171.707031 210.773438 L 157.660156 215.046875 L 150.472656 217.203125 C 146.515625 218.386719 142.171875 218.503906 138.191406 217.585938 C 130.167969 215.757812 123.816406 210.203125 120.433594 203.1875 C 120.042969 202.296875 119.65625 201.390625 119.328125 200.472656 L 118.898438 199.066406 C 118.765625 198.617188 118.605469 198.050781 118.558594 197.828125 L 117.679688 194.226562 L 115.929688 187.03125 L 112.445312 172.636719 L 110.707031 165.4375 L 110.597656 164.984375 L 110.453125 164.285156 L 110.179688 162.84375 C 110.007812 161.882812 109.960938 160.894531 109.878906 159.917969 C 109.855469 158.9375 109.867188 157.949219 109.921875 156.96875 C 110.035156 155.992188 110.097656 155.007812 110.304688 154.046875 C 111.328125 148.382812 114.351562 143.199219 118.617188 139.40625 C 120.75 137.5 123.238281 136 125.871094 134.917969 C 126.535156 134.648438 127.183594 134.378906 127.898438 134.179688 L 128.953125 133.875 C 129.265625 133.789062 129.753906 133.644531 129.914062 133.621094 L 132.605469 133.042969 L 153.789062 128.558594 L 196.09375 119.5625 C 201.695312 118.34375 207.707031 117.222656 212.632812 115 C 222.695312 110.46875 233.402344 107.910156 244.117188 105.359375 C 268.480469 99.5625 292.925781 94.09375 317.277344 88.25 C 323.113281 86.855469 328.941406 85.433594 334.773438 84.023438 C 334.539062 81.445312 334.417969 78.847656 334.359375 76.261719 C 334.375 69.269531 334.882812 62.160156 337 55.417969 C 339.5 48.175781 343.632812 41.710938 348.289062 35.992188 C 348.601562 35.628906 349.09375 35.394531 349.199219 34.898438 C 349.554688 33.351562 350.125 31.90625 350.992188 30.703125 C 351.871094 29.511719 352.910156 28.445312 354 27.4375 C 355.054688 26.394531 356.277344 25.535156 357.457031 24.648438 C 358.632812 23.753906 359.75 22.8125 360.773438 21.757812 C 366.371094 16.347656 373.261719 12.375 380.488281 9.582031 C 381.816406 9.082031 383.160156 8.625 384.507812 8.195312 C 385.890625 7.867188 387.285156 7.578125 388.667969 7.296875 C 391.410156 6.632812 394.273438 6.480469 397.046875 6.101562 C 398.152344 5.921875 399.367188 6.101562 400.289062 4.949219 C 402.203125 2.644531 404.488281 2.214844 406.761719 2.261719 C 409.351562 2.210938 411.945312 2.207031 414.535156 2.628906 L 418.410156 3.136719 L 422.246094 3.960938 C 431.484375 5.929688 440.449219 9.921875 447.90625 15.785156 C 452.660156 19.664062 456.804688 24.226562 460.226562 29.121094 C 465.042969 35.722656 468.808594 42.9375 471.367188 50.449219 L 491.894531 45.40625 C 506.144531 41.894531 520.414062 38.433594 534.609375 34.75 C 575.074219 24.390625 615.515625 13.636719 655.242188 1.804688 C 656.949219 1.339844 657.832031 1.039062 661.292969 0.378906 C 664.226562 -0.0117188 667.199219 0.121094 670.011719 0.71875 C 675.648438 1.992188 680.414062 4.996094 684.066406 8.800781 C 686.726562 11.558594 688.792969 14.847656 690.101562 18.429688 C 690.46875 19.3125 690.675781 20.25 690.941406 21.164062 C 691.089844 21.691406 691.136719 21.953125 691.199219 22.238281 L 691.390625 23.121094 L 692.160156 26.636719 L 695.359375 40.695312 C 696.230469 44.449219 697.164062 48.1875 698.105469 51.929688 L 698.8125 54.730469 C 698.863281 54.898438 698.960938 55.386719 699.03125 55.722656 L 699.25 56.835938 C 699.410156 57.574219 699.457031 58.335938 699.53125 59.09375 C 699.777344 62.125 699.472656 65.207031 698.636719 68.125 Z M 354.675781 79.207031 C 386.1875 71.523438 417.65625 63.714844 449.125 55.914062 L 449.449219 55.835938 C 449.261719 55.550781 449.066406 55.269531 448.894531 54.980469 C 448.664062 54.621094 448.734375 54.136719 448.585938 53.738281 C 446.753906 49.5625 444.628906 45.546875 442.011719 41.980469 C 441.5625 41.339844 441.160156 40.65625 440.722656 40.003906 L 439.320312 38.132812 C 438.851562 37.503906 438.40625 36.84375 437.90625 36.242188 C 437.371094 35.679688 436.832031 35.121094 436.273438 34.578125 C 435.851562 34.164062 435.410156 33.773438 434.960938 33.394531 C 434.515625 33.015625 433.984375 32.75 433.496094 32.425781 C 432.492188 31.832031 431.554688 31.144531 430.578125 30.53125 C 429.4375 29.859375 428.355469 29.085938 427.257812 28.316406 C 426.089844 27.691406 424.917969 27.042969 423.71875 26.457031 C 422.421875 25.933594 421.097656 25.453125 419.773438 24.976562 C 418.433594 24.570312 416.996094 24.453125 415.582031 24.476562 C 414.796875 24.457031 413.988281 24.578125 413.210938 24.5625 C 412.433594 24.5625 411.660156 24.511719 410.894531 24.433594 C 409.351562 24.335938 407.78125 24.378906 406.226562 24.390625 C 405.292969 24.417969 404.421875 25.480469 403.523438 25.578125 C 402.511719 25.757812 401.492188 25.710938 400.46875 25.917969 C 399.445312 26.082031 398.410156 26.207031 397.367188 26.308594 C 396.332031 26.359375 395.316406 26.597656 394.285156 26.769531 L 391.160156 27.300781 L 388.121094 28.195312 C 387.105469 28.503906 386.09375 28.832031 385.167969 29.355469 C 383.445312 30.257812 381.742188 31.207031 380.285156 32.523438 L 378.046875 34.371094 L 375.984375 36.394531 C 375.734375 36.628906 375.425781 36.789062 375.152344 36.992188 C 374.292969 37.585938 373.5625 38.328125 372.820312 39.050781 L 370.578125 41.203125 C 369.902344 41.988281 369.21875 42.757812 368.5 43.503906 L 367.398438 44.605469 C 367.039062 44.980469 366.726562 45.386719 366.367188 45.761719 C 365.625 46.574219 364.96875 47.464844 364.359375 48.375 C 363.816406 49.328125 363.398438 50.351562 362.9375 51.339844 L 362.257812 52.820312 C 362.046875 53.320312 361.898438 53.84375 361.699219 54.34375 C 361.3125 55.351562 360.875 56.324219 360.324219 57.257812 L 358.425781 61.230469 C 357.960938 62.167969 357.746094 63.175781 357.382812 64.152344 C 357.09375 65.144531 356.628906 66.109375 356.457031 67.132812 C 356.074219 69.167969 355.40625 71.199219 355.253906 73.308594 L 354.851562 76.113281 C 354.722656 77.058594 354.761719 78.003906 354.691406 78.960938 Z M 354.675781 79.207031 " fill-opacity="1" fill-rule="nonzero"/><path fill="#f652a0" d="M 647.554688 232.640625 L 647.597656 231.792969 L 647.582031 231.511719 C 647.59375 231.347656 647.59375 231.1875 647.558594 231.042969 C 647.558594 230.882812 647.53125 230.734375 647.484375 230.59375 C 647.351562 230.007812 647.101562 229.453125 646.730469 228.957031 C 646.234375 228.332031 645.589844 227.777344 644.847656 227.535156 C 644.496094 227.351562 644.097656 227.332031 643.703125 227.25 C 643.597656 227.257812 643.492188 227.253906 643.390625 227.242188 C 643.300781 227.238281 643.367188 227.222656 643.152344 227.222656 L 640.347656 227.222656 L 622.40625 227.207031 L 586.527344 227.125 L 514.761719 226.984375 L 412.5625 227.0625 L 361.53125 227.128906 C 344.640625 227.242188 327.644531 227.609375 310.660156 228.003906 C 299.964844 228.253906 289.277344 227.292969 278.515625 227.308594 C 262.941406 227.335938 247.308594 227.671875 231.691406 228.070312 C 219.167969 228.390625 206.640625 229 194.113281 229.417969 C 193.316406 229.445312 192.554688 229.4375 191.785156 229.441406 L 191.777344 229.460938 L 158.464844 234.617188 C 158.417969 235.265625 158.417969 235.902344 158.535156 236.519531 C 158.570312 236.890625 158.683594 237.257812 158.78125 237.617188 L 159.175781 239.625 C 160.3125 245.546875 161.351562 251.527344 162.273438 257.585938 C 164.125 269.703125 165.539062 282.117188 166.421875 294.910156 C 168.828125 330.140625 171.234375 365.375 173.644531 400.609375 C 175.972656 435.875 178.371094 471.074219 180.160156 506.539062 C 180.480469 513.652344 180.8125 520.71875 180.910156 528.152344 C 180.992188 531.675781 181 534.921875 181.132812 538.414062 L 181.558594 548.828125 C 182.222656 562.78125 183.117188 576.796875 184.046875 590.804688 C 185.9375 618.828125 188.128906 646.863281 190.355469 674.863281 C 191.585938 690.042969 192.8125 705.230469 194.203125 720.375 C 195.5625 735.519531 197.023438 750.660156 198.832031 765.609375 C 199.296875 769.339844 199.714844 773.105469 200.292969 776.738281 L 201.101562 782.238281 L 201.199219 782.925781 L 201.25 783.261719 L 201.285156 783.398438 C 201.339844 783.578125 201.328125 783.78125 201.402344 783.949219 C 201.5 784.3125 201.625 784.664062 201.78125 785 C 202.398438 786.34375 203.539062 787.480469 204.917969 788.101562 C 205.605469 788.414062 206.347656 788.601562 207.125 788.65625 L 207.417969 788.6875 L 208.117188 788.695312 L 209.546875 788.710938 L 212.410156 788.742188 L 258.207031 789.214844 C 262.128906 789.25 266.128906 789.511719 269.960938 789.304688 C 318.40625 786.699219 366.945312 789.3125 415.449219 788.90625 C 447.503906 788.726562 479.570312 788.554688 511.644531 788.375 C 527.535156 788.0625 543.40625 787.414062 559.175781 786.167969 C 567.054688 785.542969 574.917969 784.796875 582.703125 783.816406 L 588.527344 783.050781 L 591.425781 782.628906 C 591.722656 782.589844 591.796875 782.566406 591.890625 782.542969 L 592.199219 782.488281 C 592.398438 782.449219 592.589844 782.367188 592.789062 782.332031 C 594.335938 781.835938 595.652344 780.738281 596.449219 779.347656 C 596.726562 778.828125 596.9375 778.285156 597.085938 777.710938 C 597.152344 777.421875 597.210938 777.128906 597.238281 776.824219 C 597.261719 776.777344 597.292969 776.265625 597.320312 775.933594 L 597.402344 774.835938 L 598.085938 766.050781 L 599.488281 748.488281 L 602.421875 713.371094 L 608.472656 643.15625 C 609.269531 633.847656 610.300781 623.945312 609.929688 615.246094 C 609.179688 597.492188 610.535156 579.59375 611.957031 561.691406 C 615.171875 520.984375 618.882812 480.3125 622.613281 439.605469 L 625.222656 412.011719 L 628.007812 384.402344 L 631.125 356.730469 L 632.964844 342.804688 L 633.421875 339.324219 L 634.023438 335.742188 L 635.257812 328.5625 L 635.882812 324.996094 L 636.554688 321.683594 C 637.011719 319.476562 637.453125 317.265625 637.859375 315.046875 C 638.710938 310.621094 639.488281 306.175781 640.21875 301.71875 C 641.683594 292.808594 642.9375 283.851562 643.996094 274.867188 C 645.054688 265.886719 645.9375 256.875 646.605469 247.855469 C 646.953125 243.34375 647.226562 238.832031 647.46875 234.328125 Z M 290.527344 697.34375 C 290.660156 699.675781 291.058594 701.984375 291.257812 704.3125 C 291.417969 706.199219 289.589844 707.851562 286.867188 709.304688 C 284.355469 710.644531 281.320312 710.839844 278.847656 709.886719 C 274.488281 708.203125 273.101562 705.640625 272.671875 702.847656 C 272.222656 699.929688 272.125 696.96875 271.597656 694.066406 C 270.539062 688.277344 269.246094 682.511719 268.148438 676.730469 C 267.984375 675.863281 268.136719 674.964844 268.0625 674.085938 C 267.214844 664.566406 266.300781 655.058594 265.648438 645.53125 C 265.175781 638.792969 265.144531 632.023438 264.707031 625.289062 C 264.367188 620.199219 263.578125 615.136719 263.207031 610.046875 C 262.777344 604.183594 262.734375 598.292969 262.34375 592.429688 C 261.9375 586.265625 261.867188 580.0625 260.710938 573.964844 C 259.441406 567.132812 259.332031 560.242188 258.785156 553.359375 C 258.621094 551.316406 257.609375 549.324219 257.445312 547.28125 C 257.101562 542.730469 256.964844 538.167969 256.902344 533.601562 C 256.8125 524.585938 257.121094 515.59375 256.90625 506.464844 C 256.851562 504.371094 256.800781 502.210938 256.691406 500.085938 C 256.585938 497.96875 256.476562 496.195312 256.3125 494.183594 L 255.152344 482.160156 C 255.078125 481.4375 255.105469 480.707031 255.074219 479.984375 C 254.683594 471.136719 253.847656 462.253906 253.777344 453.339844 C 253.6875 443.867188 251.652344 434.53125 251.382812 425.066406 L 251.191406 415.398438 L 250.449219 388.238281 C 250.289062 380.207031 250.238281 372.167969 250.199219 364.128906 C 250.171875 358.742188 250.503906 353.335938 250.234375 347.964844 C 250.011719 343.441406 249.074219 338.96875 248.625 334.457031 C 248.4375 332.566406 248.730469 330.636719 248.753906 328.730469 C 248.785156 326.222656 261.417969 326.738281 262.765625 328.214844 C 266.527344 332.351562 268.84375 336.738281 268.996094 341.539062 C 269.425781 354.753906 270.03125 367.957031 270.824219 381.148438 C 271.449219 391.675781 272.742188 402.164062 273.214844 412.703125 C 273.738281 424.140625 273.65625 435.613281 273.785156 447.078125 C 273.792969 447.816406 273.578125 448.578125 273.828125 449.285156 C 276.992188 458.195312 274.914062 467.449219 275.785156 476.546875 C 276.367188 482.574219 276.71875 488.632812 276.886719 494.824219 L 276.953125 503.867188 L 277.082031 512.707031 C 277.292969 521.398438 276.972656 530.160156 277.117188 538.921875 C 277.140625 540.664062 276.980469 542.53125 278.125 544.078125 C 280.460938 547.230469 280.734375 550.5625 280.992188 553.894531 C 281.574219 561.476562 281.820312 569.085938 282.410156 576.675781 C 283.472656 590.386719 284.839844 604.082031 285.992188 617.789062 C 286.761719 626.683594 287.175781 635.609375 287.929688 644.503906 C 288.980469 657.171875 290.304688 669.8125 291.402344 682.460938 C 291.582031 684.449219 290.523438 686.550781 290.414062 688.578125 C 290.257812 691.507812 290.359375 694.433594 290.527344 697.34375 Z M 415.152344 674.171875 C 414.722656 676.957031 414.558594 679.757812 414.433594 682.550781 C 414.332031 684.792969 414.496094 687.035156 414.460938 689.277344 C 414.429688 691.097656 412.445312 692.496094 409.589844 693.609375 C 406.957031 694.640625 403.917969 694.519531 401.550781 693.371094 C 397.386719 691.34375 396.261719 688.785156 396.113281 686.101562 C 395.960938 683.296875 396.160156 680.488281 395.90625 677.6875 C 395.394531 672.105469 394.664062 666.53125 394.070312 660.953125 C 393.984375 660.117188 394.21875 659.277344 394.21875 658.441406 C 394.222656 649.339844 394.113281 640.238281 394.226562 631.140625 C 394.308594 624.707031 394.800781 618.273438 394.875 611.839844 C 394.933594 606.972656 394.503906 602.105469 394.515625 597.238281 C 394.523438 591.636719 394.875 586.03125 394.898438 580.429688 C 394.921875 574.542969 395.253906 568.636719 394.503906 562.765625 C 393.664062 556.195312 394 549.632812 393.84375 543.066406 C 393.796875 541.113281 392.902344 539.167969 392.859375 537.214844 C 392.761719 532.875 392.878906 528.539062 393.050781 524.203125 C 393.394531 515.660156 394.140625 507.117188 394.148438 498.574219 C 394.152344 490.746094 393.394531 482.921875 392.984375 475.097656 C 392.949219 474.398438 393.007812 473.695312 393.007812 472.996094 C 393.015625 464.453125 392.683594 455.910156 393.121094 447.375 C 393.585938 438.308594 392.128906 429.265625 392.460938 420.207031 C 392.574219 417.128906 392.769531 414.046875 392.894531 410.96875 C 393.25 402.3125 393.53125 393.65625 393.957031 385 C 394.339844 377.328125 394.84375 369.65625 395.363281 361.988281 C 395.710938 356.847656 396.414062 351.714844 396.527344 346.574219 C 396.621094 342.246094 396.003906 337.917969 395.878906 333.589844 C 395.824219 331.773438 396.253906 329.953125 396.414062 328.136719 C 396.621094 325.75 409.1875 327.097656 410.421875 328.597656 C 413.882812 332.796875 415.878906 337.128906 415.695312 341.710938 C 415.1875 354.328125 414.875 366.945312 414.761719 379.558594 C 414.671875 389.628906 415.257812 399.695312 415.046875 409.761719 C 414.816406 420.683594 414.015625 431.601562 413.460938 442.519531 C 413.425781 443.222656 413.167969 443.9375 413.378906 444.621094 C 416.011719 453.273438 413.421875 461.960938 413.855469 470.628906 C 414.429688 482.113281 414.300781 493.605469 414.132812 505.09375 C 414.007812 513.488281 413.292969 521.882812 412.953125 530.273438 C 412.886719 531.941406 412.625 533.722656 413.683594 535.261719 C 415.84375 538.40625 415.914062 541.613281 415.976562 544.816406 C 416.117188 552.109375 415.875 559.398438 415.96875 566.691406 C 416.140625 579.867188 416.527344 593.042969 416.664062 606.21875 C 416.753906 614.773438 416.492188 623.324219 416.511719 631.878906 C 416.542969 644.058594 416.765625 656.242188 416.710938 668.421875 C 416.707031 670.332031 415.453125 672.242188 415.152344 674.171875 Z M 571.035156 336.167969 C 570.847656 338.980469 570.292969 341.757812 570.214844 344.585938 C 570.089844 350.230469 570.1875 355.894531 570.144531 361.539062 C 570.136719 362.382812 569.8125 363.199219 569.726562 364.039062 L 566.867188 391.421875 C 566.144531 397.878906 564.984375 404.285156 564.296875 410.75 C 563.769531 415.636719 563.730469 420.570312 563.25 425.460938 C 562.695312 431.089844 561.839844 436.699219 561.289062 442.332031 C 560.714844 448.253906 559.832031 454.164062 560.054688 460.140625 C 560.296875 466.832031 559.363281 473.40625 558.929688 480.027344 C 558.804688 482 559.523438 484.039062 559.394531 486.007812 C 559.109375 490.378906 558.613281 494.738281 558.054688 499.089844 C 556.953125 507.65625 555.488281 516.199219 554.742188 524.800781 C 554.054688 532.679688 554.15625 540.628906 553.902344 548.546875 C 553.878906 549.253906 553.761719 549.953125 553.699219 550.660156 C 552.964844 559.261719 552.59375 567.898438 551.445312 576.460938 C 550.226562 585.558594 550.949219 594.789062 549.871094 603.890625 L 548.6875 613.167969 L 545.535156 639.253906 C 544.546875 646.957031 543.425781 654.648438 542.308594 662.339844 C 541.554688 667.492188 540.445312 672.613281 539.929688 677.785156 C 539.5 682.140625 539.777344 686.554688 539.566406 690.929688 C 539.476562 692.765625 538.90625 694.566406 538.605469 696.386719 C 538.210938 698.773438 525.785156 696.449219 524.671875 694.839844 C 521.550781 690.339844 519.898438 685.8125 520.441406 681.203125 C 521.9375 668.515625 523.238281 655.8125 524.363281 643.09375 C 525.25 632.945312 525.484375 622.742188 526.507812 612.601562 C 527.621094 601.605469 529.320312 590.65625 530.769531 579.691406 C 530.863281 578.988281 531.175781 578.285156 531.027344 577.578125 C 529.125 568.632812 532.417969 560.085938 532.722656 551.308594 C 533.121094 539.679688 534.21875 528.097656 535.390625 516.527344 C 536.230469 508.074219 537.675781 499.671875 538.761719 491.238281 C 538.976562 489.5625 539.394531 487.789062 538.476562 486.144531 C 536.601562 482.78125 536.8125 479.542969 537.039062 476.304688 C 537.554688 468.9375 538.460938 461.605469 539.027344 454.242188 C 540.078125 440.9375 540.90625 427.613281 542.0625 414.308594 C 542.789062 405.675781 543.914062 397.070312 544.765625 388.4375 L 546.542969 369.984375 C 547.128906 363.832031 547.75 357.679688 548.488281 351.523438 C 548.714844 349.585938 550.179688 347.796875 550.695312 345.890625 C 551.429688 343.125 551.929688 340.316406 552.410156 337.503906 C 552.792969 335.253906 552.90625 332.964844 553.222656 330.703125 C 553.476562 328.867188 555.621094 327.707031 558.59375 326.949219 C 561.332031 326.253906 564.332031 326.769531 566.535156 328.222656 C 570.417969 330.785156 571.21875 333.472656 571.035156 336.167969 Z M 673.835938 70.535156 C 673.242188 70.429688 672.589844 70.40625 671.816406 70.558594 C 668.628906 71.191406 665.417969 71.753906 662.21875 72.351562 C 662.21875 72.351562 662.214844 72.351562 662.214844 72.351562 C 659.265625 72.898438 656.328125 73.476562 653.417969 74.160156 C 638.921875 77.570312 624.546875 81.484375 610.019531 84.699219 C 592.777344 88.535156 575.417969 91.789062 558.132812 95.433594 C 532.328125 100.867188 506.53125 106.347656 480.773438 112.027344 C 466.238281 115.210938 451.714844 118.464844 437.199219 121.757812 L 393.660156 131.664062 C 383.332031 134.035156 372.980469 136.289062 362.660156 138.71875 C 332.308594 145.789062 302.449219 154.675781 272.101562 161.945312 C 257.816406 165.410156 243.558594 168.953125 229.347656 172.816406 L 208.023438 178.550781 L 186.71875 184.492188 C 184.386719 185.140625 182.042969 185.730469 179.722656 186.417969 C 173.238281 188.277344 166.769531 190.367188 160.304688 192.4375 L 150.605469 195.535156 L 145.757812 197.082031 L 144.644531 197.429688 C 144.539062 197.449219 144.4375 197.480469 144.335938 197.527344 C 144.238281 197.585938 144.132812 197.550781 144.035156 197.589844 C 143.933594 197.628906 143.832031 197.648438 143.726562 197.636719 C 143.3125 197.699219 142.859375 197.660156 142.367188 197.515625 C 141.878906 197.375 141.332031 197.183594 140.835938 196.816406 C 139.800781 196.140625 138.953125 195.058594 138.476562 193.898438 C 138.429688 193.746094 138.394531 193.59375 138.335938 193.449219 C 138.300781 193.332031 138.292969 193.394531 138.230469 193.136719 L 138.074219 192.523438 L 137.449219 190.078125 L 136.207031 185.1875 L 133.769531 175.398438 L 131.175781 164.695312 L 130.539062 162.019531 L 130.21875 160.679688 C 130.179688 160.492188 130.085938 160.144531 130.089844 160.09375 L 130.054688 159.84375 C 129.949219 159.179688 129.917969 158.523438 130.050781 157.886719 C 130.300781 156.617188 130.96875 155.386719 131.949219 154.558594 C 132.441406 154.148438 132.984375 153.832031 133.566406 153.601562 C 133.871094 153.464844 134.136719 153.429688 134.378906 153.34375 L 136.972656 152.800781 L 180.039062 143.679688 C 194.609375 140.523438 209.171875 137.285156 223.675781 133.835938 C 230.210938 132.292969 236.539062 129.902344 243.066406 128.339844 C 265.03125 123.09375 287.078125 118.277344 308.894531 112.300781 C 328.367188 106.929688 348.203125 102.617188 367.898438 97.921875 C 386.652344 93.492188 405.464844 89.320312 424.195312 84.796875 C 440.46875 80.90625 456.617188 76.449219 472.890625 72.535156 L 505.1875 64.84375 C 515.960938 62.296875 526.734375 59.773438 537.46875 57.039062 C 552.65625 53.210938 567.835938 49.367188 582.980469 45.304688 L 605.707031 39.253906 L 628.410156 32.984375 C 631.195312 32.21875 634.054688 31.671875 636.804688 30.824219 L 664.347656 21.757812 L 664.746094 21.625 L 664.886719 21.585938 C 664.976562 21.558594 665.070312 21.527344 665.160156 21.484375 C 665.34375 21.410156 665.53125 21.417969 665.710938 21.339844 C 665.902344 21.324219 666.089844 21.308594 666.289062 21.273438 C 666.484375 21.304688 666.683594 21.253906 666.890625 21.289062 C 667.714844 21.359375 668.636719 21.652344 669.511719 22.183594 C 670.386719 22.707031 671.191406 23.480469 671.765625 24.382812 C 672.046875 24.835938 672.316406 25.304688 672.492188 25.8125 L 672.636719 26.191406 C 672.691406 26.3125 672.789062 26.722656 672.863281 26.976562 L 673.335938 28.710938 C 675.882812 38 677.992188 47.429688 680.441406 56.753906 C 680.707031 57.730469 680.96875 58.703125 681.230469 59.667969 C 681.324219 59.921875 681.398438 60.175781 681.4375 60.433594 C 681.515625 60.691406 681.5625 60.949219 681.589844 61.210938 C 681.734375 62.054688 681.777344 62.945312 681.757812 63.875 C 679.980469 67.25 676.972656 69.300781 673.835938 70.535156 Z M 673.835938 70.535156 " fill-opacity="1" fill-rule="nonzero"/><path fill="#000000" d="M 667.875 222.414062 C 666.886719 219.824219 665.503906 217.402344 663.796875 215.238281 C 660.347656 210.953125 655.550781 207.734375 650.203125 206.324219 C 648.875 205.933594 647.515625 205.730469 646.15625 205.546875 C 645.476562 205.476562 644.792969 205.453125 644.109375 205.417969 L 643.152344 205.390625 L 642.515625 205.390625 L 637.414062 205.398438 L 627.207031 205.394531 L 519.246094 204.6875 L 366.527344 204.605469 C 361.800781 204.621094 357.054688 204.40625 352.371094 204.558594 C 321 205.539062 289.820312 207.175781 258.589844 208.648438 C 242.925781 209.394531 227.199219 209.722656 211.523438 210.429688 C 206.617188 210.648438 201.808594 210.992188 197.140625 211.492188 L 197.144531 211.472656 L 161.496094 214.773438 C 161.355469 214.761719 161.230469 214.742188 161.082031 214.742188 C 160.308594 214.722656 159.441406 214.859375 158.46875 215.054688 C 157.527344 215.332031 156.445312 215.640625 155.371094 216.234375 C 152.046875 217.949219 149.089844 220.410156 146.890625 223.464844 C 144.683594 226.507812 143.175781 230.101562 142.582031 233.855469 C 142.445312 234.792969 142.371094 235.742188 142.308594 236.6875 L 142.316406 238.105469 C 142.324219 238.542969 142.335938 239.140625 142.355469 239.386719 L 142.585938 243.191406 C 142.75 245.726562 142.929688 248.261719 143.140625 250.792969 C 145.148438 274.933594 147.617188 299.050781 149.34375 323.199219 C 151.394531 351.867188 152.804688 380.5625 154.488281 409.242188 C 155.738281 430.648438 156.972656 452.058594 158.066406 473.445312 C 158.617188 484.140625 159.148438 494.832031 159.578125 505.484375 C 159.832031 510.828125 159.949219 516.105469 160.121094 521.382812 L 160.273438 537.453125 C 160.910156 562.007812 162.28125 586.167969 163.75 610.433594 C 165.246094 634.667969 166.941406 658.878906 168.828125 683.097656 C 170.15625 700.335938 171.5625 717.578125 173.222656 734.839844 C 173.855469 741.1875 174.480469 747.523438 175.261719 753.882812 L 176.410156 763.417969 L 177.730469 772.988281 C 178.136719 776.15625 178.730469 779.421875 179.253906 782.648438 L 179.65625 785.074219 L 179.960938 786.890625 C 179.980469 787.050781 180.085938 787.507812 180.152344 787.796875 C 180.691406 790.453125 181.660156 793.039062 182.976562 795.425781 C 185.585938 800.21875 189.632812 804.183594 194.457031 806.679688 C 196.867188 807.929688 199.453125 808.863281 202.121094 809.34375 C 204.691406 809.867188 207.957031 809.851562 209.046875 809.816406 C 234.371094 809.5625 259.695312 809.328125 285.046875 809.574219 C 332.789062 810.039062 380.582031 809.730469 428.351562 809.761719 L 440.101562 809.792969 L 472.9375 809.457031 C 483.886719 809.324219 494.792969 809.25 505.90625 809.011719 C 528.039062 808.503906 550.179688 807.367188 572.378906 805.160156 C 578.4375 804.550781 584.5 803.859375 590.582031 803.027344 L 592.867188 802.707031 L 594.007812 802.542969 C 594.40625 802.484375 594.6875 802.457031 595.378906 802.320312 C 597.78125 801.921875 600.140625 801.144531 602.355469 800.082031 C 606.804688 797.96875 610.617188 794.558594 613.269531 790.390625 C 614.613281 788.3125 615.628906 786.023438 616.328125 783.652344 C 616.699219 782.472656 616.929688 781.253906 617.128906 780.039062 L 617.34375 778.210938 L 617.4375 777.0625 L 618.160156 768.136719 L 619.632812 750.28125 L 625.675781 678.867188 C 627.703125 654.699219 629.695312 630.511719 631.535156 606.328125 C 632.367188 595.4375 632.332031 584.5 633.191406 573.609375 C 636.003906 536.984375 639.460938 500.457031 641.953125 463.789062 C 644.183594 431.054688 647.640625 398.214844 651.535156 365.710938 C 651.960938 361.824219 652.484375 357.992188 653.027344 354.171875 L 654.628906 342.683594 L 656.605469 331.628906 C 656.898438 329.839844 657.363281 327.824219 657.769531 325.882812 C 658.1875 323.929688 658.605469 321.976562 658.984375 320.015625 C 662.152344 304.359375 664.589844 288.589844 666.414062 272.765625 C 667.203125 265.894531 667.84375 259.003906 668.371094 252.105469 C 668.632812 248.65625 668.863281 245.203125 669.066406 241.75 L 669.347656 236.5625 L 669.464844 233.96875 L 669.523438 232.582031 L 669.511719 230.519531 C 669.371094 227.773438 668.851562 225.015625 667.875 222.414062 Z M 643.996094 274.875 C 642.9375 283.855469 641.683594 292.8125 640.21875 301.722656 C 639.488281 306.179688 638.710938 310.625 637.859375 315.054688 C 637.453125 317.273438 637.011719 319.480469 636.554688 321.6875 L 635.882812 325 L 635.257812 328.566406 L 634.023438 335.746094 L 633.421875 339.328125 L 632.964844 342.808594 L 631.125 356.734375 L 628.007812 384.40625 L 625.222656 412.019531 L 622.613281 439.613281 C 618.882812 480.316406 615.171875 520.992188 611.957031 561.695312 C 610.535156 579.597656 609.179688 597.496094 609.929688 615.25 C 610.300781 623.949219 609.269531 633.851562 608.472656 643.160156 L 602.421875 713.375 L 599.488281 748.492188 L 598.085938 766.054688 L 597.402344 774.839844 L 597.320312 775.9375 C 597.292969 776.269531 597.261719 776.78125 597.238281 776.832031 C 597.210938 777.132812 597.152344 777.425781 597.089844 777.714844 C 596.9375 778.289062 596.726562 778.832031 596.449219 779.351562 C 595.652344 780.742188 594.335938 781.839844 592.789062 782.335938 C 592.589844 782.375 592.402344 782.453125 592.199219 782.492188 L 591.890625 782.546875 C 591.796875 782.566406 591.722656 782.59375 591.425781 782.632812 L 588.527344 783.054688 L 582.703125 783.820312 C 574.917969 784.800781 567.054688 785.546875 559.175781 786.171875 C 543.40625 787.417969 527.535156 788.070312 511.644531 788.378906 C 479.574219 788.554688 447.503906 788.734375 415.449219 788.910156 C 366.945312 789.316406 318.40625 786.703125 269.960938 789.308594 C 266.132812 789.515625 262.128906 789.257812 258.207031 789.21875 L 212.410156 788.746094 L 209.546875 788.714844 L 208.117188 788.699219 L 207.417969 788.691406 L 207.125 788.660156 C 206.347656 788.605469 205.605469 788.417969 204.917969 788.105469 C 203.539062 787.484375 202.398438 786.347656 201.78125 785.003906 C 201.625 784.667969 201.5 784.320312 201.402344 783.957031 C 201.328125 783.785156 201.339844 783.582031 201.285156 783.402344 L 201.25 783.265625 L 201.199219 782.929688 L 201.101562 782.242188 L 200.292969 776.746094 C 199.714844 773.109375 199.296875 769.347656 198.832031 765.613281 C 197.023438 750.664062 195.5625 735.523438 194.203125 720.378906 C 192.808594 705.238281 191.585938 690.050781 190.359375 674.867188 C 188.128906 646.863281 185.9375 618.832031 184.046875 590.808594 C 183.117188 576.800781 182.222656 562.785156 181.558594 548.835938 L 181.136719 538.417969 C 181.003906 534.925781 180.992188 531.679688 180.910156 528.15625 C 180.8125 520.722656 180.480469 513.65625 180.160156 506.542969 C 178.371094 471.078125 175.972656 435.878906 173.644531 400.613281 C 171.238281 365.378906 168.828125 330.148438 166.421875 294.917969 C 165.539062 282.121094 164.125 269.707031 162.273438 257.59375 C 161.351562 251.535156 160.3125 245.550781 159.175781 239.632812 L 158.78125 237.621094 C 158.683594 237.261719 158.570312 236.894531 158.535156 236.527344 C 158.417969 235.90625 158.417969 235.269531 158.464844 234.621094 L 191.777344 229.464844 L 191.785156 229.445312 C 192.554688 229.445312 193.316406 229.449219 194.113281 229.421875 C 206.640625 229.003906 219.167969 228.394531 231.691406 228.074219 C 247.308594 227.675781 262.941406 227.339844 278.515625 227.3125 C 289.277344 227.296875 299.964844 228.257812 310.660156 228.007812 C 327.644531 227.613281 344.640625 227.25 361.53125 227.136719 L 412.5625 227.066406 L 514.761719 226.992188 L 586.527344 227.128906 L 622.40625 227.210938 L 640.347656 227.226562 L 643.152344 227.226562 C 643.367188 227.226562 643.300781 227.242188 643.390625 227.246094 C 643.492188 227.257812 643.597656 227.261719 643.703125 227.253906 C 644.097656 227.335938 644.496094 227.355469 644.847656 227.539062 C 645.589844 227.785156 646.234375 228.339844 646.730469 228.960938 C 647.101562 229.457031 647.355469 230.011719 647.484375 230.597656 C 647.53125 230.738281 647.558594 230.890625 647.558594 231.046875 C 647.597656 231.195312 647.597656 231.351562 647.582031 231.515625 L 647.597656 231.796875 L 647.554688 232.644531 L 647.46875 234.335938 C 647.226562 238.839844 646.953125 243.355469 646.605469 247.863281 C 645.9375 256.878906 645.050781 265.890625 643.996094 274.875 Z M 699.53125 59.097656 C 699.453125 58.34375 699.410156 57.578125 699.246094 56.839844 L 699.03125 55.726562 C 698.957031 55.390625 698.859375 54.90625 698.8125 54.734375 L 698.105469 51.933594 C 697.164062 48.195312 696.226562 44.453125 695.359375 40.699219 L 692.160156 26.644531 L 691.386719 23.125 L 691.195312 22.242188 C 691.136719 21.957031 691.085938 21.695312 690.941406 21.167969 C 690.675781 20.253906 690.46875 19.316406 690.101562 18.4375 C 688.792969 14.851562 686.726562 11.5625 684.066406 8.804688 C 680.414062 5.003906 675.644531 1.996094 670.011719 0.722656 C 667.195312 0.125 664.222656 -0.0078125 661.289062 0.386719 C 657.832031 1.042969 656.945312 1.34375 655.238281 1.808594 C 615.511719 13.640625 575.074219 24.394531 534.609375 34.753906 C 520.410156 38.4375 506.144531 41.898438 491.894531 45.410156 L 471.367188 50.453125 C 468.808594 42.941406 465.042969 35.726562 460.222656 29.128906 C 456.800781 24.230469 452.65625 19.667969 447.902344 15.792969 C 440.449219 9.929688 431.484375 5.933594 422.246094 3.96875 L 418.40625 3.140625 L 414.53125 2.632812 C 411.941406 2.210938 409.351562 2.214844 406.761719 2.265625 C 404.484375 2.21875 402.203125 2.648438 400.289062 4.957031 C 399.363281 6.109375 398.148438 5.925781 397.046875 6.109375 C 394.269531 6.484375 391.410156 6.636719 388.667969 7.300781 C 387.28125 7.582031 385.890625 7.875 384.507812 8.199219 C 383.160156 8.628906 381.816406 9.085938 380.484375 9.585938 C 373.257812 12.382812 366.367188 16.351562 360.769531 21.765625 C 359.75 22.816406 358.632812 23.757812 357.457031 24.652344 C 356.277344 25.539062 355.054688 26.398438 353.996094 27.441406 C 352.910156 28.449219 351.871094 29.515625 350.992188 30.710938 C 350.121094 31.910156 349.554688 33.355469 349.199219 34.902344 C 349.09375 35.398438 348.597656 35.632812 348.289062 35.996094 C 343.632812 41.714844 339.496094 48.179688 336.996094 55.421875 C 334.882812 62.164062 334.371094 69.273438 334.359375 76.265625 C 334.417969 78.855469 334.535156 81.449219 334.773438 84.03125 C 328.941406 85.4375 323.113281 86.855469 317.277344 88.253906 C 292.925781 94.097656 268.480469 99.566406 244.117188 105.363281 C 233.402344 107.917969 222.691406 110.472656 212.632812 115.003906 C 207.703125 117.230469 201.691406 118.347656 196.09375 119.566406 L 153.792969 128.558594 L 132.609375 133.046875 L 129.917969 133.621094 C 129.757812 133.648438 129.269531 133.789062 128.957031 133.875 L 127.902344 134.183594 C 127.1875 134.378906 126.535156 134.652344 125.875 134.917969 C 123.242188 136 120.75 137.5 118.617188 139.40625 C 114.355469 143.203125 111.332031 148.382812 110.308594 154.050781 C 110.097656 155.007812 110.035156 155.996094 109.925781 156.96875 C 109.871094 157.949219 109.859375 158.9375 109.882812 159.917969 C 109.964844 160.894531 110.011719 161.882812 110.183594 162.84375 L 110.457031 164.285156 L 110.601562 164.988281 L 110.707031 165.4375 L 112.445312 172.636719 L 115.933594 187.035156 L 118.558594 197.828125 C 118.605469 198.050781 118.769531 198.617188 118.902344 199.070312 L 119.332031 200.472656 C 119.660156 201.394531 120.042969 202.296875 120.4375 203.191406 C 123.820312 210.203125 130.171875 215.757812 138.195312 217.589844 C 142.171875 218.503906 146.519531 218.390625 150.476562 217.207031 L 157.660156 215.046875 L 171.710938 210.773438 L 178.738281 208.632812 L 185.820312 206.585938 L 199.96875 202.453125 C 203.527344 201.40625 207.097656 200.402344 210.679688 199.429688 L 221.492188 196.710938 L 243.164062 191.441406 C 257.613281 187.921875 272.03125 184.269531 286.089844 179.277344 C 288.3125 178.484375 290.761719 178.152344 293.101562 177.597656 C 329.585938 169.007812 366.15625 160.796875 402.675781 152.285156 C 436.328125 144.382812 469.855469 135.871094 503.539062 128.054688 C 545.757812 118.296875 588.054688 108.847656 630.40625 99.71875 C 642.113281 97.195312 653.066406 93.550781 663.511719 89.070312 L 663.511719 89.074219 L 684.769531 80.480469 C 686.804688 80.296875 688.984375 79.636719 691.09375 78.328125 C 691.566406 78.042969 692.027344 77.714844 692.480469 77.363281 L 692.484375 77.363281 L 692.484375 77.359375 C 693.574219 76.511719 694.597656 75.480469 695.554688 74.289062 C 696.832031 72.558594 697.984375 70.507812 698.640625 68.128906 C 699.472656 65.207031 699.777344 62.125 699.53125 59.097656 Z M 673.835938 70.535156 C 673.242188 70.429688 672.589844 70.40625 671.816406 70.558594 C 668.628906 71.191406 665.417969 71.753906 662.21875 72.351562 C 662.21875 72.351562 662.214844 72.351562 662.214844 72.351562 C 659.265625 72.898438 656.328125 73.476562 653.417969 74.160156 C 638.921875 77.570312 624.546875 81.484375 610.019531 84.699219 C 592.777344 88.535156 575.417969 91.789062 558.132812 95.433594 C 532.328125 100.867188 506.53125 106.347656 480.773438 112.027344 C 466.238281 115.210938 451.714844 118.464844 437.199219 121.757812 L 393.660156 131.664062 C 383.332031 134.035156 372.980469 136.289062 362.660156 138.71875 C 332.308594 145.789062 302.449219 154.675781 272.101562 161.945312 C 257.816406 165.410156 243.558594 168.953125 229.347656 172.816406 L 208.023438 178.550781 L 186.71875 184.492188 C 184.386719 185.140625 182.042969 185.730469 179.722656 186.417969 C 173.238281 188.277344 166.769531 190.367188 160.304688 192.4375 L 150.605469 195.535156 L 145.757812 197.082031 L 144.644531 197.429688 C 144.539062 197.449219 144.4375 197.480469 144.335938 197.527344 C 144.238281 197.585938 144.132812 197.550781 144.035156 197.589844 C 143.933594 197.628906 143.832031 197.648438 143.726562 197.636719 C 143.3125 197.699219 142.859375 197.660156 142.367188 197.515625 C 141.878906 197.375 141.332031 197.183594 140.835938 196.816406 C 139.800781 196.140625 138.953125 195.058594 138.476562 193.898438 C 138.429688 193.746094 138.394531 193.59375 138.335938 193.449219 C 138.300781 193.332031 138.292969 193.394531 138.230469 193.136719 L 138.074219 192.523438 L 137.449219 190.078125 L 136.207031 185.1875 L 133.769531 175.398438 L 131.175781 164.695312 L 130.539062 162.019531 L 130.21875 160.679688 C 130.179688 160.492188 130.085938 160.144531 130.089844 160.09375 L 130.054688 159.84375 C 129.949219 159.179688 129.917969 158.523438 130.050781 157.886719 C 130.300781 156.617188 130.96875 155.386719 131.949219 154.558594 C 132.441406 154.148438 132.984375 153.832031 133.566406 153.601562 C 133.871094 153.464844 134.136719 153.429688 134.378906 153.34375 L 136.972656 152.800781 L 180.039062 143.679688 C 194.609375 140.523438 209.171875 137.285156 223.675781 133.835938 C 230.210938 132.292969 236.539062 129.902344 243.066406 128.339844 C 265.03125 123.09375 287.078125 118.277344 308.894531 112.300781 C 328.367188 106.929688 348.203125 102.617188 367.898438 97.921875 C 386.652344 93.492188 405.464844 89.320312 424.195312 84.796875 C 440.46875 80.90625 456.617188 76.449219 472.890625 72.535156 L 505.1875 64.84375 C 515.960938 62.296875 526.734375 59.773438 537.46875 57.039062 C 552.65625 53.210938 567.835938 49.367188 582.980469 45.304688 L 605.707031 39.253906 L 628.410156 32.984375 C 631.195312 32.21875 634.054688 31.671875 636.804688 30.824219 L 664.347656 21.757812 L 664.746094 21.625 L 664.886719 21.585938 C 664.976562 21.558594 665.070312 21.527344 665.160156 21.484375 C 665.34375 21.410156 665.53125 21.417969 665.710938 21.339844 C 665.902344 21.324219 666.089844 21.308594 666.289062 21.273438 C 666.484375 21.304688 666.683594 21.253906 666.890625 21.289062 C 667.714844 21.359375 668.636719 21.652344 669.511719 22.183594 C 670.386719 22.707031 671.191406 23.480469 671.765625 24.382812 C 672.046875 24.835938 672.316406 25.304688 672.492188 25.8125 L 672.636719 26.191406 C 672.691406 26.3125 672.789062 26.722656 672.863281 26.976562 L 673.335938 28.710938 C 675.882812 38 677.992188 47.429688 680.441406 56.753906 C 680.707031 57.730469 680.96875 58.703125 681.230469 59.667969 C 681.324219 59.921875 681.398438 60.175781 681.4375 60.433594 C 681.515625 60.691406 681.5625 60.949219 681.589844 61.210938 C 681.734375 62.054688 681.777344 62.945312 681.757812 63.875 C 679.980469 67.25 676.972656 69.300781 673.835938 70.535156 Z M 354.691406 78.960938 C 354.761719 78.003906 354.722656 77.058594 354.851562 76.113281 L 355.253906 73.308594 C 355.402344 71.199219 356.070312 69.167969 356.457031 67.132812 C 356.628906 66.109375 357.09375 65.144531 357.382812 64.152344 C 357.746094 63.175781 357.960938 62.167969 358.421875 61.230469 L 360.324219 57.257812 C 360.875 56.324219 361.3125 55.351562 361.695312 54.34375 C 361.894531 53.847656 362.046875 53.320312 362.257812 52.820312 L 362.9375 51.339844 C 363.398438 50.351562 363.816406 49.328125 364.359375 48.375 C 364.96875 47.464844 365.625 46.574219 366.367188 45.761719 C 366.722656 45.386719 367.039062 44.980469 367.398438 44.605469 L 368.5 43.503906 C 369.214844 42.757812 369.902344 41.988281 370.578125 41.203125 L 372.820312 39.050781 C 373.5625 38.328125 374.292969 37.585938 375.152344 36.992188 C 375.425781 36.789062 375.734375 36.628906 375.980469 36.394531 L 378.046875 34.371094 L 380.285156 32.523438 C 381.738281 31.207031 383.441406 30.257812 385.164062 29.355469 C 386.089844 28.832031 387.105469 28.503906 388.121094 28.195312 L 391.160156 27.300781 L 394.28125 26.769531 C 395.316406 26.597656 396.328125 26.359375 397.367188 26.308594 C 398.410156 26.207031 399.441406 26.082031 400.46875 25.917969 C 401.488281 25.707031 402.507812 25.753906 403.519531 25.578125 C 404.421875 25.480469 405.292969 24.417969 406.222656 24.390625 C 407.777344 24.378906 409.347656 24.335938 410.890625 24.433594 C 411.660156 24.511719 412.429688 24.5625 413.210938 24.5625 C 413.988281 24.578125 414.796875 24.457031 415.578125 24.476562 C 416.992188 24.453125 418.429688 24.570312 419.773438 24.976562 C 421.097656 25.453125 422.421875 25.933594 423.71875 26.457031 C 424.917969 27.042969 426.085938 27.691406 427.253906 28.316406 C 428.355469 29.085938 429.433594 29.859375 430.578125 30.53125 C 431.554688 31.140625 432.488281 31.832031 433.496094 32.425781 C 433.984375 32.75 434.515625 33.015625 434.960938 33.394531 C 435.410156 33.773438 435.847656 34.164062 436.273438 34.578125 C 436.828125 35.121094 437.371094 35.679688 437.90625 36.242188 C 438.402344 36.84375 438.847656 37.503906 439.316406 38.132812 L 440.722656 40.003906 C 441.160156 40.652344 441.558594 41.339844 442.011719 41.980469 C 444.625 45.546875 446.753906 49.5625 448.585938 53.738281 C 448.734375 54.136719 448.664062 54.621094 448.890625 54.980469 C 449.066406 55.269531 449.261719 55.550781 449.449219 55.835938 L 449.125 55.914062 C 417.65625 63.714844 386.183594 71.523438 354.675781 79.207031 Z M 571.035156 336.167969 C 570.847656 338.980469 570.292969 341.757812 570.214844 344.585938 C 570.089844 350.230469 570.1875 355.894531 570.144531 361.539062 C 570.136719 362.382812 569.8125 363.199219 569.726562 364.039062 L 566.867188 391.421875 C 566.144531 397.878906 564.984375 404.285156 564.296875 410.75 C 563.769531 415.636719 563.730469 420.570312 563.25 425.460938 C 562.695312 431.089844 561.839844 436.699219 561.289062 442.332031 C 560.714844 448.253906 559.832031 454.164062 560.054688 460.140625 C 560.296875 466.832031 559.363281 473.40625 558.929688 480.027344 C 558.804688 482 559.523438 484.039062 559.394531 486.007812 C 559.109375 490.378906 558.613281 494.738281 558.054688 499.089844 C 556.953125 507.65625 555.488281 516.199219 554.742188 524.800781 C 554.054688 532.679688 554.15625 540.628906 553.902344 548.546875 C 553.878906 549.253906 553.761719 549.953125 553.699219 550.660156 C 552.964844 559.261719 552.59375 567.898438 551.445312 576.460938 C 550.226562 585.558594 550.949219 594.789062 549.871094 603.890625 L 548.6875 613.167969 L 545.535156 639.253906 C 544.546875 646.957031 543.425781 654.648438 542.308594 662.339844 C 541.554688 667.492188 540.445312 672.613281 539.929688 677.785156 C 539.5 682.140625 539.777344 686.554688 539.566406 690.929688 C 539.476562 692.765625 538.90625 694.566406 538.605469 696.386719 C 538.210938 698.773438 525.785156 696.449219 524.671875 694.839844 C 521.550781 690.339844 519.898438 685.8125 520.441406 681.203125 C 521.9375 668.515625 523.238281 655.8125 524.363281 643.09375 C 525.25 632.945312 525.484375 622.742188 526.507812 612.601562 C 527.621094 601.605469 529.320312 590.65625 530.769531 579.691406 C 530.863281 578.988281 531.175781 578.285156 531.027344 577.578125 C 529.125 568.632812 532.417969 560.085938 532.722656 551.308594 C 533.121094 539.679688 534.21875 528.097656 535.390625 516.527344 C 536.230469 508.074219 537.675781 499.671875 538.761719 491.238281 C 538.976562 489.5625 539.394531 487.789062 538.476562 486.144531 C 536.601562 482.78125 536.8125 479.542969 537.039062 476.304688 C 537.554688 468.9375 538.460938 461.605469 539.027344 454.242188 C 540.078125 440.9375 540.90625 427.613281 542.0625 414.308594 C 542.789062 405.675781 543.914062 397.070312 544.765625 388.4375 L 546.542969 369.984375 C 547.128906 363.832031 547.75 357.679688 548.488281 351.523438 C 548.714844 349.585938 550.179688 347.796875 550.695312 345.890625 C 551.429688 343.125 551.929688 340.316406 552.410156 337.503906 C 552.792969 335.253906 552.90625 332.964844 553.222656 330.703125 C 553.476562 328.867188 555.621094 327.707031 558.59375 326.949219 C 561.332031 326.253906 564.332031 326.769531 566.535156 328.222656 C 570.417969 330.785156 571.21875 333.472656 571.035156 336.167969 Z M 290.410156 688.574219 C 290.257812 691.507812 290.359375 694.433594 290.523438 697.34375 C 290.65625 699.675781 291.054688 701.984375 291.253906 704.3125 C 291.417969 706.199219 289.585938 707.851562 286.863281 709.304688 C 284.351562 710.644531 281.320312 710.839844 278.84375 709.886719 C 274.488281 708.203125 273.097656 705.640625 272.671875 702.847656 C 272.21875 699.929688 272.121094 696.96875 271.597656 694.066406 C 270.535156 688.277344 269.246094 682.511719 268.148438 676.730469 C 267.980469 675.863281 268.136719 674.964844 268.058594 674.085938 C 267.210938 664.566406 266.296875 655.058594 265.648438 645.53125 C 265.175781 638.792969 265.144531 632.023438 264.707031 625.289062 C 264.363281 620.199219 263.574219 615.136719 263.207031 610.046875 C 262.777344 604.183594 262.734375 598.292969 262.34375 592.429688 C 261.9375 586.265625 261.863281 580.0625 260.710938 573.964844 C 259.441406 567.132812 259.332031 560.242188 258.785156 553.359375 C 258.617188 551.316406 257.605469 549.324219 257.441406 547.28125 C 257.097656 542.730469 256.960938 538.167969 256.902344 533.601562 C 256.8125 524.585938 257.117188 515.59375 256.902344 506.464844 C 256.851562 504.371094 256.800781 502.210938 256.691406 500.085938 C 256.585938 497.96875 256.476562 496.195312 256.308594 494.183594 L 255.148438 482.160156 C 255.078125 481.4375 255.105469 480.707031 255.070312 479.984375 C 254.683594 471.136719 253.847656 462.253906 253.773438 453.339844 C 253.6875 443.867188 251.652344 434.53125 251.378906 425.066406 L 251.191406 415.398438 L 250.449219 388.238281 C 250.289062 380.207031 250.238281 372.167969 250.199219 364.128906 C 250.171875 358.742188 250.5 353.335938 250.230469 347.964844 C 250.007812 343.441406 249.070312 338.96875 248.625 334.457031 C 248.433594 332.566406 248.726562 330.636719 248.753906 328.730469 C 248.785156 326.222656 261.417969 326.738281 262.761719 328.214844 C 266.527344 332.351562 268.84375 336.738281 268.996094 341.539062 C 269.421875 354.753906 270.03125 367.957031 270.820312 381.148438 C 271.445312 391.675781 272.738281 402.164062 273.214844 412.703125 C 273.734375 424.140625 273.652344 435.613281 273.78125 447.078125 C 273.789062 447.816406 273.578125 448.578125 273.828125 449.285156 C 276.992188 458.195312 274.914062 467.449219 275.78125 476.546875 C 276.367188 482.574219 276.71875 488.632812 276.882812 494.824219 L 276.953125 503.867188 L 277.082031 512.707031 C 277.289062 521.398438 276.972656 530.160156 277.113281 538.921875 C 277.140625 540.664062 276.980469 542.53125 278.125 544.078125 C 280.460938 547.230469 280.734375 550.5625 280.988281 553.894531 C 281.574219 561.476562 281.820312 569.085938 282.40625 576.675781 C 283.472656 590.386719 284.839844 604.082031 285.992188 617.789062 C 286.757812 626.683594 287.175781 635.609375 287.925781 644.503906 C 288.976562 657.171875 290.300781 669.8125 291.402344 682.460938 C 291.578125 684.449219 290.515625 686.546875 290.410156 688.574219 Z M 416.519531 631.871094 C 416.550781 644.054688 416.769531 656.234375 416.714844 668.414062 C 416.707031 670.332031 415.453125 672.242188 415.15625 674.171875 C 414.726562 676.957031 414.5625 679.757812 414.4375 682.550781 C 414.332031 684.792969 414.496094 687.035156 414.460938 689.277344 C 414.433594 691.097656 412.445312 692.496094 409.589844 693.609375 C 406.957031 694.640625 403.917969 694.519531 401.554688 693.371094 C 397.386719 691.34375 396.265625 688.785156 396.117188 686.101562 C 395.960938 683.296875 396.164062 680.488281 395.90625 677.6875 C 395.398438 672.105469 394.664062 666.53125 394.074219 660.953125 C 393.988281 660.117188 394.21875 659.277344 394.21875 658.441406 C 394.222656 649.339844 394.117188 640.238281 394.230469 631.140625 C 394.308594 624.707031 394.800781 618.273438 394.878906 611.839844 C 394.9375 606.972656 394.507812 602.105469 394.515625 597.238281 C 394.527344 591.636719 394.878906 586.03125 394.902344 580.429688 C 394.925781 574.542969 395.253906 568.636719 394.503906 562.765625 C 393.664062 556.195312 394 549.632812 393.84375 543.066406 C 393.796875 541.113281 392.90625 539.167969 392.863281 537.214844 C 392.765625 532.875 392.878906 528.539062 393.050781 524.203125 C 393.394531 515.660156 394.144531 507.117188 394.148438 498.574219 C 394.152344 490.746094 393.394531 482.921875 392.984375 475.097656 C 392.949219 474.398438 393.007812 473.695312 393.011719 472.996094 C 393.019531 464.453125 392.6875 455.910156 393.125 447.375 C 393.589844 438.308594 392.128906 429.265625 392.464844 420.207031 C 392.578125 417.128906 392.769531 414.046875 392.898438 410.96875 C 393.253906 402.3125 393.535156 393.65625 393.960938 385 C 394.339844 377.328125 394.84375 369.65625 395.363281 361.988281 C 395.710938 356.847656 396.414062 351.714844 396.527344 346.574219 C 396.621094 342.246094 396.003906 337.917969 395.878906 333.589844 C 395.824219 331.773438 396.253906 329.953125 396.414062 328.136719 C 396.625 325.75 409.191406 327.097656 410.425781 328.597656 C 413.882812 332.796875 415.882812 337.128906 415.695312 341.710938 C 415.1875 354.328125 414.878906 366.945312 414.765625 379.558594 C 414.671875 389.628906 415.257812 399.695312 415.046875 409.761719 C 414.820312 420.683594 414.019531 431.601562 413.464844 442.519531 C 413.429688 443.222656 413.171875 443.9375 413.378906 444.621094 C 416.011719 453.273438 413.425781 461.960938 413.859375 470.628906 C 414.433594 482.113281 414.300781 493.605469 414.132812 505.09375 C 414.011719 513.488281 413.292969 521.882812 412.953125 530.273438 C 412.886719 531.941406 412.625 533.722656 413.683594 535.261719 C 415.847656 538.40625 415.914062 541.613281 415.976562 544.816406 C 416.117188 552.109375 415.878906 559.398438 415.972656 566.691406 C 416.144531 579.867188 416.527344 593.042969 416.667969 606.21875 C 416.761719 614.765625 416.496094 623.320312 416.519531 631.871094 Z M 416.519531 631.871094 " fill-opacity="1" fill-rule="nonzero"/></svg>